<?xml version="1.0" encoding="UTF-8"?>
<svg xmlns="http://www.w3.org/2000/svg" xmlns:xlink="http://www.w3.org/1999/xlink" width="50px" height="50px" viewBox="0 0 50 50" version="1.1">
<g id="surface1">
<path style="fill-rule:nonzero;fill:rgb(0%,43.529412%,81.176471%);fill-opacity:1;stroke-width:1;stroke-linecap:butt;stroke-linejoin:miter;stroke:rgb(95.294118%,95.294118%,95.294118%);stroke-opacity:1;stroke-miterlimit:4;" d="M 4.001094 0.502031 L 53.998906 0.502031 C 55.93375 0.502031 57.501563 2.065312 57.501563 4.000156 L 57.501563 35.999844 C 57.501563 37.934688 55.93375 39.497969 53.998906 39.497969 L 4.001094 39.497969 C 2.06625 39.497969 0.498438 37.934688 0.498438 35.999844 L 0.498438 4.000156 C 0.498438 2.065312 2.06625 0.502031 4.001094 0.502031 Z M 4.001094 0.502031 " transform="matrix(0.862069,0,0,0.862069,0,7.758621)"/>
<path style=" stroke:none;fill-rule:evenodd;fill:rgb(100%,100%,100%);fill-opacity:1;" d="M 10.226562 32.667969 L 10.226562 25.566406 L 18.265625 25.566406 L 19.125 26.621094 L 20.019531 25.566406 L 49.191406 25.566406 L 49.191406 32.175781 C 49.191406 32.175781 48.429688 32.660156 47.546875 32.667969 L 31.390625 32.667969 L 30.421875 31.546875 L 30.421875 32.667969 L 27.234375 32.667969 L 27.234375 30.757812 C 27.234375 30.757812 26.800781 31.023438 25.859375 31.023438 L 24.773438 31.023438 L 24.773438 32.667969 L 19.949219 32.667969 L 19.089844 31.59375 L 18.214844 32.667969 Z M 0.863281 20.21875 L 2.671875 16.265625 L 5.796875 16.265625 L 6.824219 18.480469 L 6.824219 16.265625 L 10.710938 16.265625 L 11.324219 17.867188 L 11.914062 16.265625 L 29.367188 16.265625 L 29.367188 17.070312 C 29.367188 17.070312 30.285156 16.265625 31.792969 16.265625 L 37.453125 16.285156 L 38.464844 18.46875 L 38.464844 16.265625 L 41.714844 16.265625 L 42.613281 17.519531 L 42.613281 16.265625 L 45.894531 16.265625 L 45.894531 23.367188 L 42.613281 23.367188 L 41.753906 22.105469 L 41.753906 23.367188 L 36.972656 23.367188 L 36.492188 22.246094 L 35.207031 22.246094 L 34.734375 23.367188 L 31.492188 23.367188 C 30.195312 23.367188 29.367188 22.578125 29.367188 22.578125 L 29.367188 23.367188 L 24.480469 23.367188 L 23.507812 22.246094 L 23.507812 23.367188 L 5.335938 23.367188 L 4.855469 22.246094 L 3.574219 22.246094 L 3.097656 23.367188 L 0.863281 23.367188 Z M 0.871094 22.457031 L 3.308594 17.140625 L 5.160156 17.140625 L 7.597656 22.457031 L 5.972656 22.457031 L 5.527344 21.394531 L 2.910156 21.394531 L 2.460938 22.457031 Z M 5.011719 20.238281 L 4.214844 18.378906 L 3.414062 20.238281 Z M 7.765625 22.457031 L 7.765625 17.140625 L 10.019531 17.148438 L 11.332031 20.574219 L 12.613281 17.140625 L 14.851562 17.140625 L 14.851562 22.457031 L 13.4375 22.457031 L 13.4375 18.539062 L 11.933594 22.457031 L 10.6875 22.457031 L 9.183594 18.539062 L 9.183594 22.457031 Z M 15.824219 22.457031 L 15.824219 17.140625 L 20.449219 17.140625 L 20.449219 18.328125 L 17.257812 18.328125 L 17.257812 19.238281 L 20.375 19.238281 L 20.375 20.359375 L 17.257812 20.359375 L 17.257812 21.300781 L 20.449219 21.300781 L 20.449219 22.457031 Z M 21.269531 22.457031 L 21.269531 17.140625 L 24.425781 17.140625 C 25.472656 17.140625 26.40625 17.746094 26.40625 18.867188 C 26.40625 19.820312 25.617188 20.4375 24.851562 20.5 L 26.71875 22.457031 L 24.984375 22.457031 L 23.285156 20.570312 L 22.6875 20.570312 L 22.6875 22.457031 Z M 24.308594 18.332031 L 22.6875 18.332031 L 22.6875 19.449219 L 24.332031 19.449219 C 24.613281 19.449219 24.980469 19.242188 24.980469 18.890625 C 24.980469 18.617188 24.699219 18.332031 24.308594 18.332031 Z M 28.433594 22.457031 L 26.988281 22.457031 L 26.988281 17.140625 L 28.433594 17.140625 Z M 31.867188 22.457031 L 31.554688 22.457031 C 30.042969 22.457031 29.125 21.339844 29.125 19.820312 C 29.125 18.261719 30.03125 17.140625 31.941406 17.140625 L 33.507812 17.140625 L 33.507812 18.398438 L 31.882812 18.398438 C 31.109375 18.398438 30.5625 18.964844 30.5625 19.832031 C 30.5625 20.863281 31.1875 21.296875 32.089844 21.296875 L 32.464844 21.296875 Z M 32.511719 22.457031 L 34.953125 17.140625 L 36.800781 17.140625 L 39.238281 22.457031 L 37.613281 22.457031 L 37.167969 21.394531 L 34.550781 21.394531 L 34.101562 22.457031 Z M 36.652344 20.238281 L 35.855469 18.378906 L 35.054688 20.238281 Z M 39.402344 22.457031 L 39.402344 17.140625 L 41.207031 17.140625 L 43.507812 20.480469 L 43.507812 17.140625 L 44.925781 17.140625 L 44.925781 22.457031 L 43.179688 22.457031 L 40.820312 19.027344 L 40.820312 22.457031 Z M 11.195312 31.757812 L 11.195312 26.441406 L 15.824219 26.441406 L 15.824219 27.632812 L 12.628906 27.632812 L 12.628906 28.539062 L 15.75 28.539062 L 15.75 29.660156 L 12.628906 29.660156 L 12.628906 30.605469 L 15.824219 30.605469 L 15.824219 31.757812 Z M 33.867188 31.757812 L 33.867188 26.441406 L 38.492188 26.441406 L 38.492188 27.632812 L 35.300781 27.632812 L 35.300781 28.539062 L 38.402344 28.539062 L 38.402344 29.660156 L 35.300781 29.660156 L 35.300781 30.605469 L 38.492188 30.605469 L 38.492188 31.757812 Z M 16.003906 31.757812 L 18.253906 29.132812 L 15.949219 26.441406 L 17.734375 26.441406 L 19.109375 28.105469 L 20.488281 26.441406 L 22.203125 26.441406 L 19.925781 29.101562 L 22.183594 31.757812 L 20.398438 31.757812 L 19.066406 30.121094 L 17.761719 31.757812 Z M 22.351562 31.757812 L 22.351562 26.445312 L 25.484375 26.445312 C 26.769531 26.445312 27.519531 27.21875 27.519531 28.230469 C 27.519531 29.453125 26.5625 30.082031 25.300781 30.082031 L 23.808594 30.082031 L 23.808594 31.757812 Z M 25.378906 27.644531 L 23.808594 27.644531 L 23.808594 28.871094 L 25.375 28.871094 C 25.789062 28.871094 26.078125 28.613281 26.078125 28.257812 C 26.078125 27.878906 25.789062 27.644531 25.378906 27.644531 Z M 28.136719 31.757812 L 28.136719 26.441406 L 31.289062 26.441406 C 32.335938 26.441406 33.273438 27.046875 33.273438 28.167969 C 33.273438 29.125 32.484375 29.738281 31.71875 29.800781 L 33.582031 31.757812 L 31.851562 31.757812 L 30.152344 29.871094 L 29.554688 29.871094 L 29.554688 31.757812 Z M 31.175781 27.632812 L 29.554688 27.632812 L 29.554688 28.75 L 31.195312 28.75 C 31.480469 28.75 31.847656 28.542969 31.847656 28.191406 C 31.847656 27.917969 31.5625 27.632812 31.175781 27.632812 Z M 39.148438 31.757812 L 39.148438 30.605469 L 41.988281 30.605469 C 42.40625 30.605469 42.589844 30.390625 42.589844 30.15625 C 42.589844 29.933594 42.40625 29.707031 41.988281 29.707031 L 40.703125 29.707031 C 39.589844 29.707031 38.96875 29.070312 38.96875 28.117188 C 38.96875 27.265625 39.539062 26.441406 41.195312 26.441406 L 43.957031 26.441406 L 43.359375 27.636719 L 40.96875 27.636719 C 40.515625 27.636719 40.375 27.863281 40.375 28.078125 C 40.375 28.296875 40.546875 28.539062 40.894531 28.539062 L 42.238281 28.539062 C 43.480469 28.539062 44.019531 29.203125 44.019531 30.066406 C 44.019531 30.996094 43.417969 31.757812 42.171875 31.757812 Z M 44.144531 31.757812 L 44.144531 30.605469 L 46.984375 30.605469 C 47.402344 30.605469 47.585938 30.390625 47.585938 30.15625 C 47.585938 29.933594 47.402344 29.707031 46.984375 29.707031 L 45.699219 29.707031 C 44.585938 29.707031 43.964844 29.070312 43.964844 28.117188 C 43.964844 27.265625 44.535156 26.441406 46.191406 26.441406 L 48.949219 26.441406 L 48.355469 27.636719 L 45.964844 27.636719 C 45.511719 27.636719 45.371094 27.863281 45.371094 28.078125 C 45.371094 28.296875 45.542969 28.539062 45.890625 28.539062 L 47.234375 28.539062 C 48.476562 28.539062 49.015625 29.203125 49.015625 30.066406 C 49.015625 30.996094 48.414062 31.757812 47.167969 31.757812 Z M 44.144531 31.757812 "/>
</g>
</svg>
