<?xml version="1.0" encoding="UTF-8"?>
<svg xmlns="http://www.w3.org/2000/svg" xmlns:xlink="http://www.w3.org/1999/xlink" width="50px" height="50px" viewBox="0 0 50 50" version="1.1">
<g id="surface1">
<path style="fill-rule:nonzero;fill:rgb(100%,100%,100%);fill-opacity:1;stroke-width:1;stroke-linecap:butt;stroke-linejoin:miter;stroke:rgb(95.294118%,95.294118%,95.294118%);stroke-opacity:1;stroke-miterlimit:4;" d="M 4.001094 0.502031 L 53.998906 0.502031 C 55.93375 0.502031 57.501563 2.065312 57.501563 4.000156 L 57.501563 35.999844 C 57.501563 37.934688 55.93375 39.497969 53.998906 39.497969 L 4.001094 39.497969 C 2.06625 39.497969 0.498438 37.934688 0.498438 35.999844 L 0.498438 4.000156 C 0.498438 2.065312 2.06625 0.502031 4.001094 0.502031 Z M 4.001094 0.502031 " transform="matrix(0.862069,0,0,0.862069,0,7.758621)"/>
<path style=" stroke:none;fill-rule:nonzero;fill:rgb(0%,33.72549%,59.215686%);fill-opacity:1;" d="M 39.804688 17.03125 L 28.070312 17.03125 L 26.878906 18.371094 L 23.007812 22.730469 L 23.007812 22.734375 L 21.8125 24.074219 L 10.234375 24.074219 L 11.410156 22.714844 L 11.964844 22.070312 L 13.140625 20.710938 L 7.804688 20.710938 C 6.832031 20.710938 6.035156 21.527344 6.035156 22.527344 L 6.035156 26.363281 C 6.035156 27.363281 6.832031 28.179688 7.804688 28.179688 L 28.230469 28.179688 C 29.203125 28.179688 30.535156 27.570312 31.1875 26.828125 L 34.277344 23.316406 Z M 39.804688 17.03125 "/>
<path style=" stroke:none;fill-rule:nonzero;fill:rgb(98.431373%,83.529412%,0%);fill-opacity:1;" d="M 42.160156 12.929688 C 43.136719 12.929688 43.933594 13.75 43.933594 14.75 L 43.933594 18.582031 C 43.933594 19.582031 43.136719 20.398438 42.160156 20.398438 L 36.84375 20.398438 L 38.03125 19.050781 L 38.617188 18.378906 L 39.804688 17.03125 L 28.070312 17.03125 L 21.8125 24.082031 L 10.164062 24.082031 L 18.519531 14.632812 L 18.835938 14.277344 C 19.488281 13.535156 20.824219 12.929688 21.796875 12.929688 Z M 42.160156 12.929688 "/>
<path style=" stroke:none;fill-rule:evenodd;fill:rgb(0%,33.72549%,59.215686%);fill-opacity:1;" d="M 10.027344 34.695312 C 10.027344 34.445312 9.96875 34.230469 9.851562 34.046875 C 9.734375 33.863281 9.578125 33.722656 9.386719 33.628906 C 9.578125 33.53125 9.726562 33.390625 9.832031 33.203125 C 9.9375 33.015625 9.992188 32.800781 9.992188 32.566406 L 9.992188 32.4375 C 9.992188 32.148438 9.9375 31.90625 9.824219 31.714844 C 9.714844 31.523438 9.558594 31.367188 9.359375 31.253906 C 9.160156 31.136719 8.921875 31.054688 8.640625 31.003906 C 8.363281 30.953125 8.050781 30.925781 7.710938 30.925781 C 7.59375 30.925781 7.472656 30.929688 7.347656 30.933594 C 7.222656 30.9375 7.101562 30.945312 6.984375 30.953125 C 6.867188 30.960938 6.757812 30.96875 6.660156 30.976562 C 6.558594 30.988281 6.480469 30.996094 6.417969 31.007812 C 6.277344 31.03125 6.179688 31.074219 6.121094 31.136719 C 6.0625 31.199219 6.035156 31.3125 6.035156 31.476562 L 6.035156 35.867188 C 6.035156 36.03125 6.066406 36.144531 6.125 36.207031 C 6.183594 36.269531 6.289062 36.3125 6.433594 36.335938 C 6.503906 36.351562 6.589844 36.363281 6.691406 36.371094 C 6.792969 36.382812 6.902344 36.390625 7.019531 36.398438 C 7.136719 36.40625 7.257812 36.410156 7.386719 36.414062 C 7.511719 36.421875 7.632812 36.421875 7.753906 36.421875 C 8.066406 36.421875 8.359375 36.398438 8.636719 36.351562 C 8.914062 36.300781 9.15625 36.21875 9.359375 36.09375 C 9.566406 35.972656 9.726562 35.804688 9.847656 35.597656 C 9.96875 35.386719 10.027344 35.121094 10.027344 34.804688 Z M 8.800781 32.625 C 8.800781 32.703125 8.789062 32.773438 8.765625 32.84375 C 8.738281 32.914062 8.699219 32.972656 8.644531 33.023438 C 8.589844 33.074219 8.515625 33.117188 8.421875 33.148438 C 8.328125 33.179688 8.207031 33.195312 8.0625 33.195312 L 7.253906 33.195312 L 7.253906 31.945312 C 7.277344 31.945312 7.316406 31.945312 7.367188 31.941406 C 7.417969 31.941406 7.46875 31.9375 7.527344 31.9375 L 7.804688 31.9375 C 8.175781 31.9375 8.433594 31.984375 8.582031 32.078125 C 8.726562 32.171875 8.800781 32.320312 8.800781 32.515625 Z M 8.617188 35.246094 C 8.757812 35.136719 8.828125 34.980469 8.828125 34.777344 L 8.828125 34.695312 C 8.828125 34.523438 8.773438 34.375 8.664062 34.246094 C 8.550781 34.117188 8.351562 34.054688 8.0625 34.054688 L 7.253906 34.054688 L 7.253906 35.40625 L 7.382812 35.40625 C 7.4375 35.40625 7.496094 35.40625 7.554688 35.410156 C 7.613281 35.410156 7.671875 35.410156 7.726562 35.410156 L 7.847656 35.410156 C 8.21875 35.410156 8.472656 35.355469 8.617188 35.246094 Z M 13.984375 33.636719 C 13.984375 33.371094 13.945312 33.144531 13.867188 32.960938 C 13.785156 32.773438 13.675781 32.625 13.53125 32.503906 C 13.386719 32.386719 13.210938 32.300781 13 32.246094 C 12.789062 32.191406 12.554688 32.164062 12.296875 32.164062 C 12.054688 32.164062 11.820312 32.179688 11.589844 32.210938 C 11.363281 32.246094 11.179688 32.28125 11.046875 32.3125 C 10.953125 32.339844 10.910156 32.390625 10.910156 32.472656 L 10.910156 33.058594 C 10.910156 33.105469 10.921875 33.140625 10.945312 33.160156 C 10.96875 33.179688 11 33.1875 11.039062 33.1875 L 11.074219 33.1875 C 11.132812 33.183594 11.207031 33.175781 11.292969 33.167969 C 11.378906 33.164062 11.476562 33.15625 11.585938 33.152344 C 11.691406 33.148438 11.804688 33.144531 11.921875 33.140625 C 12.042969 33.136719 12.160156 33.136719 12.273438 33.136719 C 12.441406 33.136719 12.574219 33.167969 12.671875 33.230469 C 12.765625 33.292969 12.816406 33.429688 12.816406 33.636719 L 12.816406 33.894531 L 12.425781 33.894531 C 11.804688 33.894531 11.351562 33.992188 11.070312 34.1875 C 10.789062 34.382812 10.648438 34.691406 10.648438 35.117188 L 10.648438 35.179688 C 10.648438 35.417969 10.683594 35.613281 10.753906 35.773438 C 10.824219 35.933594 10.917969 36.058594 11.03125 36.15625 C 11.148438 36.253906 11.277344 36.320312 11.425781 36.363281 C 11.570312 36.402344 11.726562 36.421875 11.882812 36.421875 C 12.101562 36.421875 12.289062 36.394531 12.445312 36.335938 C 12.601562 36.277344 12.75 36.199219 12.886719 36.097656 L 12.886719 36.214844 C 12.886719 36.253906 12.902344 36.285156 12.929688 36.316406 C 12.960938 36.34375 12.992188 36.359375 13.03125 36.359375 L 13.839844 36.359375 C 13.878906 36.359375 13.914062 36.34375 13.941406 36.316406 C 13.972656 36.285156 13.984375 36.253906 13.984375 36.214844 Z M 12.558594 35.496094 C 12.65625 35.464844 12.75 35.425781 12.835938 35.382812 L 12.835938 34.589844 L 12.425781 34.589844 C 12.300781 34.589844 12.195312 34.597656 12.113281 34.621094 C 12.035156 34.644531 11.96875 34.675781 11.921875 34.71875 C 11.871094 34.761719 11.839844 34.816406 11.820312 34.882812 C 11.800781 34.953125 11.789062 35.027344 11.789062 35.117188 L 11.789062 35.179688 C 11.789062 35.335938 11.828125 35.433594 11.902344 35.476562 C 11.976562 35.519531 12.089844 35.542969 12.246094 35.542969 C 12.355469 35.542969 12.460938 35.527344 12.558594 35.496094 Z M 18.40625 36.207031 L 18.40625 33.800781 C 18.40625 33.574219 18.386719 33.363281 18.351562 33.164062 C 18.316406 32.960938 18.25 32.789062 18.15625 32.640625 C 18.0625 32.496094 17.933594 32.378906 17.765625 32.292969 C 17.601562 32.207031 17.386719 32.164062 17.128906 32.164062 C 16.894531 32.164062 16.691406 32.191406 16.511719 32.246094 C 16.335938 32.300781 16.148438 32.398438 15.949219 32.539062 L 15.949219 32.367188 C 15.949219 32.328125 15.933594 32.292969 15.90625 32.265625 C 15.878906 32.234375 15.84375 32.21875 15.804688 32.21875 L 14.996094 32.21875 C 14.957031 32.21875 14.925781 32.234375 14.894531 32.261719 C 14.867188 32.292969 14.851562 32.324219 14.851562 32.363281 L 14.851562 36.207031 C 14.851562 36.246094 14.867188 36.28125 14.898438 36.3125 C 14.929688 36.34375 14.964844 36.359375 15.003906 36.359375 L 15.878906 36.359375 C 15.917969 36.359375 15.949219 36.34375 15.980469 36.3125 C 16.007812 36.28125 16.023438 36.246094 16.023438 36.207031 L 16.023438 33.367188 C 16.148438 33.300781 16.265625 33.246094 16.375 33.203125 C 16.488281 33.160156 16.59375 33.136719 16.699219 33.136719 C 16.8125 33.136719 16.902344 33.148438 16.972656 33.167969 C 17.042969 33.191406 17.09375 33.226562 17.132812 33.28125 C 17.171875 33.335938 17.199219 33.402344 17.214844 33.488281 C 17.226562 33.578125 17.234375 33.683594 17.234375 33.808594 L 17.234375 36.207031 C 17.234375 36.246094 17.25 36.28125 17.277344 36.3125 C 17.308594 36.34375 17.339844 36.359375 17.378906 36.359375 L 18.253906 36.359375 C 18.292969 36.359375 18.328125 36.34375 18.359375 36.3125 C 18.390625 36.28125 18.40625 36.246094 18.40625 36.207031 Z M 21.957031 35.507812 L 21.957031 36.148438 C 21.957031 36.203125 21.945312 36.238281 21.921875 36.261719 C 21.898438 36.28125 21.859375 36.300781 21.804688 36.316406 C 21.707031 36.339844 21.574219 36.363281 21.414062 36.386719 C 21.25 36.410156 21.0625 36.421875 20.847656 36.421875 C 20.335938 36.421875 19.929688 36.265625 19.621094 35.953125 C 19.316406 35.640625 19.164062 35.1875 19.164062 34.597656 L 19.164062 33.988281 C 19.164062 33.398438 19.316406 32.945312 19.621094 32.632812 C 19.929688 32.320312 20.335938 32.164062 20.847656 32.164062 C 21.0625 32.164062 21.25 32.175781 21.414062 32.199219 C 21.574219 32.222656 21.707031 32.246094 21.804688 32.269531 C 21.859375 32.285156 21.898438 32.304688 21.921875 32.324219 C 21.945312 32.347656 21.957031 32.382812 21.957031 32.4375 L 21.957031 33.078125 C 21.957031 33.117188 21.945312 33.148438 21.917969 33.167969 C 21.890625 33.191406 21.859375 33.203125 21.820312 33.203125 L 21.804688 33.203125 C 21.671875 33.1875 21.542969 33.175781 21.421875 33.167969 C 21.296875 33.15625 21.132812 33.152344 20.925781 33.152344 C 20.84375 33.152344 20.765625 33.164062 20.695312 33.191406 C 20.621094 33.21875 20.558594 33.261719 20.507812 33.328125 C 20.453125 33.394531 20.410156 33.480469 20.378906 33.589844 C 20.347656 33.695312 20.332031 33.832031 20.332031 33.988281 L 20.332031 34.597656 C 20.332031 34.753906 20.347656 34.886719 20.378906 34.996094 C 20.410156 35.105469 20.453125 35.191406 20.507812 35.257812 C 20.558594 35.320312 20.621094 35.367188 20.695312 35.394531 C 20.765625 35.421875 20.84375 35.433594 20.925781 35.433594 C 21.132812 35.433594 21.296875 35.429688 21.421875 35.417969 C 21.542969 35.410156 21.671875 35.398438 21.804688 35.382812 L 21.820312 35.382812 C 21.859375 35.382812 21.890625 35.394531 21.917969 35.414062 C 21.945312 35.4375 21.957031 35.46875 21.957031 35.507812 Z M 25.964844 34.039062 C 25.964844 33.75 25.925781 33.492188 25.847656 33.261719 C 25.765625 33.027344 25.652344 32.832031 25.5 32.671875 C 25.347656 32.511719 25.160156 32.386719 24.933594 32.296875 C 24.710938 32.207031 24.453125 32.164062 24.15625 32.164062 C 23.863281 32.164062 23.605469 32.207031 23.378906 32.296875 C 23.15625 32.386719 22.964844 32.511719 22.8125 32.671875 C 22.65625 32.832031 22.539062 33.027344 22.460938 33.261719 C 22.378906 33.492188 22.339844 33.75 22.339844 34.039062 L 22.339844 34.546875 C 22.339844 34.835938 22.378906 35.09375 22.460938 35.324219 C 22.539062 35.554688 22.65625 35.753906 22.8125 35.914062 C 22.964844 36.074219 23.15625 36.199219 23.378906 36.289062 C 23.605469 36.378906 23.863281 36.421875 24.15625 36.421875 C 24.453125 36.421875 24.710938 36.378906 24.933594 36.289062 C 25.160156 36.199219 25.347656 36.074219 25.5 35.914062 C 25.652344 35.753906 25.765625 35.554688 25.847656 35.324219 C 25.925781 35.09375 25.964844 34.835938 25.964844 34.546875 Z M 24.15625 35.433594 C 24.582031 35.433594 24.796875 35.136719 24.796875 34.546875 L 24.796875 34.039062 C 24.796875 33.453125 24.582031 33.160156 24.15625 33.160156 C 23.945312 33.160156 23.785156 33.230469 23.675781 33.378906 C 23.566406 33.527344 23.511719 33.746094 23.511719 34.039062 L 23.511719 34.546875 C 23.511719 34.839844 23.566406 35.058594 23.675781 35.210938 C 23.785156 35.359375 23.945312 35.433594 24.15625 35.433594 Z M 30.261719 36.207031 L 30.261719 33.800781 C 30.261719 33.574219 30.246094 33.363281 30.210938 33.164062 C 30.171875 32.960938 30.109375 32.789062 30.015625 32.640625 C 29.921875 32.496094 29.789062 32.378906 29.625 32.292969 C 29.457031 32.207031 29.246094 32.164062 28.984375 32.164062 C 28.753906 32.164062 28.550781 32.191406 28.371094 32.246094 C 28.191406 32.300781 28.003906 32.398438 27.808594 32.539062 L 27.808594 32.367188 C 27.808594 32.328125 27.792969 32.292969 27.765625 32.265625 C 27.734375 32.234375 27.703125 32.21875 27.664062 32.21875 L 26.855469 32.21875 C 26.816406 32.21875 26.78125 32.234375 26.753906 32.261719 C 26.726562 32.292969 26.710938 32.324219 26.710938 32.363281 L 26.710938 36.207031 C 26.710938 36.246094 26.726562 36.28125 26.757812 36.3125 C 26.789062 36.34375 26.824219 36.359375 26.863281 36.359375 L 27.734375 36.359375 C 27.773438 36.359375 27.808594 36.34375 27.835938 36.3125 C 27.867188 36.28125 27.878906 36.246094 27.878906 36.207031 L 27.878906 33.367188 C 28.003906 33.300781 28.125 33.246094 28.234375 33.203125 C 28.34375 33.160156 28.453125 33.136719 28.558594 33.136719 C 28.667969 33.136719 28.761719 33.148438 28.828125 33.167969 C 28.898438 33.191406 28.953125 33.226562 28.992188 33.28125 C 29.03125 33.335938 29.058594 33.402344 29.070312 33.488281 C 29.085938 33.578125 29.09375 33.683594 29.09375 33.808594 L 29.09375 36.207031 C 29.09375 36.246094 29.109375 36.28125 29.136719 36.3125 C 29.164062 36.34375 29.199219 36.359375 29.238281 36.359375 L 30.113281 36.359375 C 30.148438 36.359375 30.183594 36.34375 30.214844 36.3125 C 30.246094 36.28125 30.261719 36.246094 30.261719 36.207031 Z M 33.410156 35.664062 L 33.410156 36.222656 C 33.410156 36.304688 33.367188 36.351562 33.273438 36.367188 C 33.164062 36.382812 33.066406 36.398438 32.984375 36.410156 C 32.902344 36.417969 32.808594 36.421875 32.703125 36.421875 C 32.507812 36.421875 32.335938 36.40625 32.183594 36.375 C 32.03125 36.34375 31.90625 36.285156 31.804688 36.191406 C 31.707031 36.101562 31.628906 35.972656 31.578125 35.8125 C 31.523438 35.652344 31.5 35.445312 31.5 35.1875 L 31.5 33.09375 L 30.921875 33 C 30.882812 32.992188 30.847656 32.972656 30.816406 32.945312 C 30.785156 32.917969 30.769531 32.886719 30.769531 32.847656 L 30.769531 32.371094 C 30.769531 32.332031 30.785156 32.296875 30.816406 32.265625 C 30.847656 32.234375 30.882812 32.21875 30.921875 32.21875 L 31.5 32.21875 L 31.5 31.628906 C 31.5 31.589844 31.511719 31.558594 31.542969 31.535156 C 31.570312 31.511719 31.601562 31.492188 31.640625 31.484375 L 32.515625 31.332031 L 32.539062 31.332031 C 32.578125 31.332031 32.609375 31.34375 32.632812 31.363281 C 32.65625 31.386719 32.667969 31.414062 32.667969 31.453125 L 32.667969 32.21875 L 33.261719 32.21875 C 33.296875 32.21875 33.332031 32.234375 33.363281 32.261719 C 33.390625 32.292969 33.40625 32.328125 33.40625 32.367188 L 33.40625 32.957031 C 33.40625 32.996094 33.390625 33.027344 33.363281 33.058594 C 33.332031 33.085938 33.296875 33.101562 33.261719 33.101562 L 32.667969 33.101562 L 32.667969 35.203125 C 32.667969 35.347656 32.679688 35.441406 32.703125 35.480469 C 32.726562 35.519531 32.796875 35.542969 32.90625 35.542969 L 33.261719 35.542969 C 33.363281 35.542969 33.410156 35.582031 33.410156 35.664062 Z M 37.269531 33.636719 C 37.269531 33.371094 37.230469 33.144531 37.148438 32.960938 C 37.070312 32.773438 36.957031 32.625 36.8125 32.503906 C 36.667969 32.386719 36.492188 32.300781 36.28125 32.246094 C 36.074219 32.191406 35.839844 32.164062 35.578125 32.164062 C 35.335938 32.164062 35.101562 32.179688 34.875 32.210938 C 34.644531 32.246094 34.464844 32.28125 34.328125 32.3125 C 34.238281 32.339844 34.191406 32.390625 34.191406 32.472656 L 34.191406 33.058594 C 34.191406 33.105469 34.203125 33.140625 34.226562 33.160156 C 34.253906 33.179688 34.285156 33.1875 34.320312 33.1875 L 34.359375 33.1875 C 34.414062 33.183594 34.488281 33.175781 34.574219 33.167969 C 34.660156 33.164062 34.757812 33.15625 34.867188 33.152344 C 34.976562 33.148438 35.089844 33.144531 35.207031 33.140625 C 35.324219 33.136719 35.441406 33.136719 35.558594 33.136719 C 35.726562 33.136719 35.859375 33.167969 35.953125 33.230469 C 36.050781 33.292969 36.097656 33.429688 36.097656 33.636719 L 36.097656 33.894531 L 35.707031 33.894531 C 35.085938 33.894531 34.636719 33.992188 34.355469 34.1875 C 34.074219 34.382812 33.933594 34.691406 33.933594 35.117188 L 33.933594 35.179688 C 33.933594 35.417969 33.964844 35.613281 34.035156 35.773438 C 34.105469 35.933594 34.199219 36.058594 34.316406 36.15625 C 34.429688 36.253906 34.5625 36.320312 34.707031 36.363281 C 34.855469 36.402344 35.007812 36.421875 35.167969 36.421875 C 35.382812 36.421875 35.570312 36.394531 35.726562 36.335938 C 35.882812 36.277344 36.03125 36.199219 36.171875 36.097656 L 36.171875 36.214844 C 36.171875 36.253906 36.183594 36.285156 36.214844 36.316406 C 36.242188 36.34375 36.277344 36.359375 36.316406 36.359375 L 37.125 36.359375 C 37.164062 36.359375 37.195312 36.34375 37.226562 36.316406 C 37.253906 36.285156 37.269531 36.253906 37.269531 36.214844 Z M 35.84375 35.496094 C 35.941406 35.464844 36.035156 35.425781 36.121094 35.382812 L 36.121094 34.589844 L 35.707031 34.589844 C 35.582031 34.589844 35.480469 34.597656 35.398438 34.621094 C 35.316406 34.644531 35.25 34.675781 35.203125 34.71875 C 35.15625 34.761719 35.121094 34.816406 35.101562 34.882812 C 35.082031 34.953125 35.074219 35.027344 35.074219 35.117188 L 35.074219 35.179688 C 35.074219 35.335938 35.109375 35.433594 35.183594 35.476562 C 35.257812 35.519531 35.375 35.542969 35.527344 35.542969 C 35.636719 35.542969 35.742188 35.527344 35.84375 35.496094 Z M 40.820312 36.148438 L 40.820312 35.507812 C 40.820312 35.46875 40.808594 35.4375 40.78125 35.414062 C 40.753906 35.394531 40.722656 35.382812 40.683594 35.382812 L 40.667969 35.382812 C 40.535156 35.398438 40.40625 35.410156 40.285156 35.417969 C 40.160156 35.429688 39.996094 35.433594 39.789062 35.433594 C 39.707031 35.433594 39.628906 35.421875 39.558594 35.394531 C 39.484375 35.367188 39.421875 35.320312 39.371094 35.257812 C 39.316406 35.191406 39.273438 35.105469 39.242188 34.996094 C 39.210938 34.886719 39.195312 34.753906 39.195312 34.597656 L 39.195312 33.988281 C 39.195312 33.832031 39.210938 33.695312 39.242188 33.589844 C 39.273438 33.480469 39.316406 33.394531 39.371094 33.328125 C 39.421875 33.261719 39.484375 33.21875 39.558594 33.191406 C 39.628906 33.164062 39.707031 33.152344 39.789062 33.152344 C 39.996094 33.152344 40.160156 33.15625 40.285156 33.167969 C 40.40625 33.175781 40.535156 33.1875 40.667969 33.203125 L 40.683594 33.203125 C 40.722656 33.203125 40.753906 33.191406 40.78125 33.167969 C 40.808594 33.148438 40.820312 33.117188 40.820312 33.078125 L 40.820312 32.4375 C 40.820312 32.382812 40.808594 32.347656 40.785156 32.324219 C 40.761719 32.304688 40.722656 32.285156 40.667969 32.269531 C 40.570312 32.246094 40.4375 32.222656 40.277344 32.199219 C 40.113281 32.175781 39.925781 32.164062 39.710938 32.164062 C 39.199219 32.164062 38.789062 32.320312 38.484375 32.632812 C 38.179688 32.945312 38.027344 33.398438 38.027344 33.988281 L 38.027344 34.597656 C 38.027344 35.1875 38.179688 35.640625 38.484375 35.953125 C 38.789062 36.265625 39.199219 36.421875 39.710938 36.421875 C 39.925781 36.421875 40.113281 36.410156 40.277344 36.386719 C 40.4375 36.363281 40.570312 36.339844 40.667969 36.316406 C 40.722656 36.300781 40.761719 36.28125 40.785156 36.261719 C 40.808594 36.238281 40.820312 36.203125 40.820312 36.148438 Z M 43.933594 35.664062 L 43.933594 36.222656 C 43.933594 36.304688 43.886719 36.351562 43.796875 36.367188 C 43.6875 36.382812 43.589844 36.398438 43.507812 36.410156 C 43.425781 36.417969 43.332031 36.421875 43.226562 36.421875 C 43.03125 36.421875 42.855469 36.40625 42.707031 36.375 C 42.554688 36.34375 42.429688 36.285156 42.328125 36.191406 C 42.226562 36.101562 42.152344 35.972656 42.097656 35.8125 C 42.046875 35.652344 42.019531 35.445312 42.019531 35.1875 L 42.019531 33.09375 L 41.441406 33 C 41.402344 32.992188 41.367188 32.972656 41.335938 32.945312 C 41.304688 32.917969 41.289062 32.886719 41.289062 32.847656 L 41.289062 32.371094 C 41.289062 32.332031 41.304688 32.296875 41.335938 32.265625 C 41.367188 32.234375 41.402344 32.21875 41.441406 32.21875 L 42.019531 32.21875 L 42.019531 31.628906 C 42.019531 31.589844 42.035156 31.558594 42.0625 31.535156 C 42.089844 31.511719 42.125 31.492188 42.164062 31.484375 L 43.039062 31.332031 L 43.0625 31.332031 C 43.097656 31.332031 43.128906 31.34375 43.152344 31.363281 C 43.179688 31.386719 43.191406 31.414062 43.191406 31.453125 L 43.191406 32.21875 L 43.78125 32.21875 C 43.820312 32.21875 43.855469 32.234375 43.882812 32.261719 C 43.914062 32.292969 43.925781 32.328125 43.925781 32.367188 L 43.925781 32.957031 C 43.925781 32.996094 43.914062 33.027344 43.882812 33.058594 C 43.855469 33.085938 43.820312 33.101562 43.78125 33.101562 L 43.191406 33.101562 L 43.191406 35.203125 C 43.191406 35.347656 43.203125 35.441406 43.226562 35.480469 C 43.25 35.519531 43.316406 35.542969 43.429688 35.542969 L 43.78125 35.542969 C 43.882812 35.542969 43.933594 35.582031 43.933594 35.664062 Z M 43.933594 35.664062 "/>
</g>
</svg>
