<?xml version="1.0" encoding="UTF-8"?>
<svg xmlns="http://www.w3.org/2000/svg" xmlns:xlink="http://www.w3.org/1999/xlink" width="50px" height="50px" viewBox="0 0 50 50" version="1.1">
<defs>
<linearGradient id="linear0" gradientUnits="userSpaceOnUse" x1="36.5397" y1="19.0034" x2="29.0929" y2="14.241" gradientTransform="matrix(0.862069,0,0,0.862069,0,7.758621)">
<stop offset="0" style="stop-color:rgb(96.470588%,62.745098%,0%);stop-opacity:1;"/>
<stop offset="0.623918" style="stop-color:rgb(89.411765%,49.411765%,0.784314%);stop-opacity:1;"/>
<stop offset="1" style="stop-color:rgb(82.745098%,37.647059%,0.784314%);stop-opacity:1;"/>
</linearGradient>
</defs>
<g id="surface1">
<path style="fill-rule:nonzero;fill:rgb(100%,100%,100%);fill-opacity:1;stroke-width:1;stroke-linecap:butt;stroke-linejoin:miter;stroke:rgb(95.294118%,95.294118%,95.294118%);stroke-opacity:1;stroke-miterlimit:4;" d="M 4.001094 0.502031 L 53.998906 0.502031 C 55.93375 0.502031 57.501563 2.065312 57.501563 4.000156 L 57.501563 35.999844 C 57.501563 37.934688 55.93375 39.497969 53.998906 39.497969 L 4.001094 39.497969 C 2.06625 39.497969 0.498438 37.934688 0.498438 35.999844 L 0.498438 4.000156 C 0.498438 2.065312 2.06625 0.502031 4.001094 0.502031 Z M 4.001094 0.502031 " transform="matrix(0.862069,0,0,0.862069,0,7.758621)"/>
<path style=" stroke:none;fill-rule:evenodd;fill:rgb(11.372549%,11.372549%,10.588235%);fill-opacity:1;" d="M 16.4375 25.277344 C 16.4375 27.382812 18.09375 29.015625 20.21875 29.015625 C 20.820312 29.015625 21.335938 28.898438 21.972656 28.597656 L 21.972656 26.953125 C 21.414062 27.511719 20.917969 27.738281 20.285156 27.738281 C 18.878906 27.738281 17.878906 26.71875 17.878906 25.265625 C 17.878906 23.890625 18.910156 22.808594 20.21875 22.808594 C 20.886719 22.808594 21.390625 23.046875 21.972656 23.613281 L 21.972656 21.96875 C 21.359375 21.660156 20.851562 21.53125 20.253906 21.53125 C 18.136719 21.53125 16.4375 23.195312 16.4375 25.277344 Z M 12.851562 23.539062 C 12.851562 23.925781 13.097656 24.128906 13.9375 24.441406 C 15.527344 25.023438 15.996094 25.535156 15.996094 26.675781 C 15.996094 28.0625 14.980469 29.027344 13.527344 29.027344 C 12.464844 29.027344 11.691406 28.609375 11.046875 27.664062 L 11.949219 26.792969 C 12.273438 27.414062 12.808594 27.75 13.476562 27.75 C 14.097656 27.75 14.558594 27.320312 14.558594 26.738281 C 14.558594 26.4375 14.421875 26.179688 14.140625 25.996094 C 14 25.910156 13.722656 25.78125 13.175781 25.589844 C 11.863281 25.117188 11.414062 24.613281 11.414062 23.625 C 11.414062 22.453125 12.378906 21.574219 13.648438 21.574219 C 14.433594 21.574219 15.152344 21.84375 15.75 22.367188 L 15.019531 23.324219 C 14.65625 22.917969 14.3125 22.746094 13.894531 22.746094 C 13.292969 22.746094 12.851562 23.085938 12.851562 23.539062 Z M 9.125 28.855469 L 10.523438 28.855469 L 10.523438 21.691406 L 9.125 21.691406 Z M 6.269531 27.070312 C 5.832031 27.46875 5.261719 27.640625 4.355469 27.640625 L 3.980469 27.640625 L 3.980469 22.90625 L 4.355469 22.90625 C 5.261719 22.90625 5.808594 23.066406 6.269531 23.484375 C 6.753906 23.914062 7.042969 24.582031 7.042969 25.265625 C 7.042969 25.957031 6.753906 26.640625 6.269531 27.070312 Z M 4.636719 21.691406 L 2.585938 21.691406 L 2.585938 28.855469 L 4.625 28.855469 C 5.710938 28.855469 6.492188 28.597656 7.179688 28.027344 C 8 27.351562 8.480469 26.332031 8.480469 25.277344 C 8.480469 23.164062 6.902344 21.691406 4.636719 21.691406 Z M 31.136719 21.691406 L 33.046875 26.503906 L 34.984375 21.691406 L 36.496094 21.691406 L 33.402344 29.039062 L 32.652344 29.039062 L 29.613281 21.691406 Z M 37.128906 28.855469 L 41.089844 28.855469 L 41.089844 27.640625 L 38.523438 27.640625 L 38.523438 25.707031 L 40.996094 25.707031 L 40.996094 24.496094 L 38.523438 24.496094 L 38.523438 22.90625 L 41.089844 22.90625 L 41.089844 21.691406 L 37.128906 21.691406 Z M 43.410156 24.988281 L 43.820312 24.988281 C 44.710938 24.988281 45.183594 24.601562 45.183594 23.882812 C 45.183594 23.183594 44.710938 22.820312 43.84375 22.820312 L 43.410156 22.820312 Z M 44.089844 21.691406 C 45.699219 21.691406 46.621094 22.464844 46.621094 23.804688 C 46.621094 24.902344 46.042969 25.621094 44.992188 25.835938 L 47.246094 28.855469 L 45.527344 28.855469 L 43.59375 25.976562 L 43.410156 25.976562 L 43.410156 28.855469 L 42.015625 28.855469 L 42.015625 21.691406 Z M 44.089844 21.691406 "/>
<path style=" stroke:none;fill-rule:evenodd;fill:url(#linear0);" d="M 29.445312 27.351562 C 30.582031 25.578125 30.0625 23.222656 28.289062 22.089844 C 26.515625 20.953125 24.160156 21.472656 23.027344 23.246094 C 21.894531 25.019531 22.410156 27.375 24.183594 28.507812 C 25.957031 29.640625 28.3125 29.125 29.445312 27.351562 Z M 29.445312 27.351562 "/>
</g>
</svg>
