<?xml version="1.0" encoding="UTF-8"?>
<svg xmlns="http://www.w3.org/2000/svg" xmlns:xlink="http://www.w3.org/1999/xlink" width="50px" height="50px" viewBox="0 0 50 50" version="1.1">
<g id="surface1">
<path style="fill-rule:nonzero;fill:rgb(100%,100%,100%);fill-opacity:1;stroke-width:1;stroke-linecap:butt;stroke-linejoin:miter;stroke:rgb(95.294118%,95.294118%,95.294118%);stroke-opacity:1;stroke-miterlimit:4;" d="M 4.001094 0.502031 L 53.998906 0.502031 C 55.93375 0.502031 57.501563 2.065312 57.501563 4.000156 L 57.501563 35.999844 C 57.501563 37.934688 55.93375 39.497969 53.998906 39.497969 L 4.001094 39.497969 C 2.06625 39.497969 0.498438 37.934688 0.498438 35.999844 L 0.498438 4.000156 C 0.498438 2.065312 2.06625 0.502031 4.001094 0.502031 Z M 4.001094 0.502031 " transform="matrix(0.862069,0,0,0.862069,0,7.758621)"/>
<path style=" stroke:none;fill-rule:nonzero;fill:rgb(100%,94.901961%,0%);fill-opacity:1;" d="M 10.523438 20.695312 C 10.992188 20.542969 11.492188 20.457031 12.011719 20.457031 C 14.28125 20.457031 16.175781 22.039062 16.609375 24.136719 L 19.828125 23.496094 C 19.089844 19.925781 15.871094 17.242188 12.011719 17.242188 C 11.128906 17.242188 10.277344 17.382812 9.484375 17.640625 Z M 10.523438 20.695312 "/>
<path style=" stroke:none;fill-rule:nonzero;fill:rgb(0%,64.313725%,87.843137%);fill-opacity:1;" d="M 6.695312 31.035156 L 8.621094 28.550781 C 7.761719 27.679688 7.21875 26.414062 7.21875 25 C 7.21875 23.585938 7.761719 22.316406 8.621094 21.449219 L 6.691406 18.964844 C 5.230469 20.441406 4.308594 22.597656 4.308594 25 C 4.308594 27.402344 5.234375 29.558594 6.695312 31.035156 "/>
<path style=" stroke:none;fill-rule:nonzero;fill:rgb(93.72549%,25.490196%,13.72549%);fill-opacity:1;" d="M 16.609375 25.863281 C 16.175781 27.960938 14.28125 29.539062 12.015625 29.539062 C 11.492188 29.539062 10.992188 29.457031 10.523438 29.300781 L 9.484375 32.355469 C 10.277344 32.617188 11.128906 32.757812 12.015625 32.757812 C 15.871094 32.757812 19.085938 30.074219 19.828125 26.507812 Z M 16.609375 25.863281 "/>
<path style=" stroke:none;fill-rule:evenodd;fill:rgb(0%,0%,0%);fill-opacity:1;" d="M 35.308594 18.964844 L 35.308594 27.796875 L 36.894531 28.429688 L 36.144531 30.171875 L 34.574219 29.542969 C 34.222656 29.394531 33.984375 29.167969 33.800781 28.914062 C 33.628906 28.65625 33.5 28.300781 33.5 27.820312 L 33.5 18.964844 Z M 23.277344 25.527344 C 23.316406 23.003906 25.46875 20.988281 28.082031 21.027344 C 30.296875 21.058594 32.136719 22.558594 32.617188 24.554688 L 24.042969 28.09375 C 23.542969 27.359375 23.261719 26.472656 23.277344 25.527344 Z M 25.238281 25.882812 C 25.226562 25.777344 25.21875 25.667969 25.222656 25.558594 C 25.246094 24.070312 26.515625 22.882812 28.054688 22.90625 C 28.890625 22.917969 29.632812 23.289062 30.136719 23.863281 Z M 29.957031 27.519531 C 29.441406 28.007812 28.738281 28.304688 27.964844 28.292969 C 27.433594 28.285156 26.945312 28.128906 26.527344 27.875 L 25.488281 29.46875 C 26.199219 29.902344 27.035156 30.160156 27.9375 30.171875 C 29.25 30.191406 30.445312 29.691406 31.316406 28.871094 Z M 41.910156 22.90625 C 41.601562 22.90625 41.304688 22.957031 41.027344 23.046875 L 40.410156 21.257812 C 40.882812 21.105469 41.386719 21.023438 41.910156 21.023438 C 44.203125 21.023438 46.113281 22.597656 46.550781 24.683594 L 44.640625 25.0625 C 44.382812 23.832031 43.257812 22.90625 41.910156 22.90625 Z M 38.773438 29.023438 L 40.066406 27.613281 C 39.488281 27.121094 39.125 26.402344 39.125 25.597656 C 39.125 24.796875 39.488281 24.078125 40.0625 23.582031 L 38.773438 22.171875 C 37.792969 23.011719 37.175781 24.234375 37.175781 25.597656 C 37.175781 26.960938 37.792969 28.1875 38.773438 29.023438 Z M 41.910156 28.289062 C 43.257812 28.289062 44.382812 27.367188 44.640625 26.140625 L 46.550781 26.515625 C 46.109375 28.601562 44.199219 30.171875 41.910156 30.171875 C 41.386719 30.171875 40.878906 30.089844 40.40625 29.9375 L 41.027344 28.152344 C 41.304688 28.242188 41.601562 28.289062 41.910156 28.289062 Z M 41.910156 28.289062 "/>
</g>
</svg>
